<?xml version="1.0" encoding="utf-8"?>
<!-- Generator: Adobe Illustrator 22.1.0, SVG Export Plug-In . SVG Version: 6.00 Build 0)  -->
<svg version="1.1" id="Слой_1" xmlns="http://www.w3.org/2000/svg" xmlns:xlink="http://www.w3.org/1999/xlink" x="0px" y="0px"
	 viewBox="0 0 993.7 178.6" style="enable-background:new 0 0 993.7 178.6;" xml:space="preserve">
<style type="text/css">
	.st0{fill:#FFFFFF;}
	.st1{fill:#6CA900;}
</style>
<title>logo-original</title>
<polygon class="st0" points="28.5,150.1 28.5,114.5 0,114.5 0,178.6 64.1,178.6 64.1,150.1 "/>
<polygon class="st0" points="28.5,36.1 64.1,36.1 64.1,7.6 0,7.6 0,71.8 28.5,71.8 "/>
<polygon class="st0" points="142.5,150.1 106.9,150.1 106.9,178.6 171,178.6 171,114.5 142.5,114.5 "/>
<g id="reply">
	<path class="st1" d="M114.2,92.6l18.3,18.3l10-74.8L68.4,46.8l18.8,18.8c-22.9,22.9-46.3,31.6-73.7,27
		C40.9,110.9,77.6,120.1,114.2,92.6z"/>
</g>
<path class="st0" d="M206.1,9.6v105.6h-8.1V9.6H206.1z"/>
<path class="st0" d="M315.3,87c-5,16.7-17.3,29.4-39.7,29.4c-30.3,0-46.3-24.1-46.3-53.8c0-28.5,15.7-54.5,46.4-54.5
	c22.8,0,36.2,12.7,39.7,30.3h-8.1c-4.8-13.7-13.7-22.8-32-22.8c-26.2,0-37.3,24-37.3,46.8c0,22.6,10.9,46.4,37.9,46.4
	c17.2,0,26-8.9,31.2-21.9L315.3,87z"/>
<path class="st0" d="M426.9,61.7c0,28.8-15.4,55-48,55c-29.7,0-47.1-24-47.1-54.3c0-29.9,16.7-54.3,48.1-54.3
	C408.9,8.1,426.9,30.9,426.9,61.7z M340.6,62c0,24.3,13.4,47.2,38.8,47.2c27.3,0,38.8-22.3,38.8-47.4c0-24.6-13-46.2-38.5-46.2
	C352.5,15.7,340.6,38.2,340.6,62L340.6,62z"/>
<path class="st1" d="M469.3,115.2V79.3h-14.2v35.9h-14.8V17.5c0-4.6,1.9-8.9,5.3-12.1C448.8,2,453.3,0,458,0h8c4.7,0,9.2,2,12.2,5.6
	c3.4,3.2,5.4,7.7,5.4,12.4v97.3L469.3,115.2z M469,10.1h-14.2v59.1H469V10.1z"/>
<path class="st1" d="M541.8,110c-3.1,3.3-7.5,5.3-12.1,5.3h-8c-4.7,0.1-9.2-1.9-12.4-5.4c-3.3-3.3-5.2-7.8-5.3-12.5V53.4
	c0-4.4,1.8-8.4,5.4-11.9c3.7-3.6,7.8-5.4,12.2-5.4h11.3V0h14v97.9C547.1,102.5,545.2,106.9,541.8,110z M533.1,46.3h-14.5v59h14.5
	V46.3z"/>
<path class="st1" d="M589,115.2l-21.5-28.4V36h14.5v47.7l7.1,9.5l7.4-9.5V36h14v50.7L589,115.2z"/>
<path class="st1" d="M631.1,115.2V36c3.7-0.1,7.4,1.2,10.2,3.7c2.8,2.3,4.4,5.8,4.3,9.4v66.1H631.1z"/>
<path class="st1" d="M703.7,110.1c-3.2,3.4-7.6,5.3-12.2,5.3H683c-4.6,0-9-2-11.9-5.6c-3.2-3.5-5-8.1-5-12.8V53.7
	c0-4.6,1.9-8.9,5.3-12.1c3.1-3.3,7.5-5.3,12.1-5.3h8.3c4.6,0,9.1,2,12.1,5.6c3.5,3.8,5.3,7.9,5.3,12.4v8.5h-14.3V46.3h-14.2v59h14.2
	V87.2h14.3v10.7C709.1,102.6,707.1,107,703.7,110.1z"/>
<path class="st1" d="M741.8,79.3V105h14.5V92.3h14v5.6c-0.1,9.5-7.8,17.2-17.3,17.3h-8.5c-4.7,0-9.2-2-12.2-5.6c-3.3-3.5-5-8.2-5-13
	V53.4c0-4.4,1.8-8.4,5.4-11.9c3.7-3.6,7.8-5.4,12.2-5.4h8c4.5,0,8.6,1.9,12.2,5.6c3.6,3.7,5.4,7.8,5.4,12.4v25.3H741.8z M756.3,46.3
	h-14.5v22.9h14.5V46.3z"/>
<path class="st0" d="M837.9,115.2h-12.1c-0.4-2.5-0.7-5-0.8-7.6c-2.8,6.7-8.6,9-15.2,9c-14.8,0-19.6-10.7-19.6-27.8V41.6
	c0-16.5,6.4-28.6,23.9-28.6c21.2,0,23.4,15.5,23.4,26.4v3.3H822v-4c0-5.3-0.8-11.5-7.9-11.5c-5.7,0-8.1,3.9-8.1,12v51.5
	c0,8.1,2.3,12.3,8,12.3c6.7,0,8.4-5.6,8.4-16V72.2h-8.8V58.9H838L837.9,115.2z"/>
<path class="st0" d="M895.6,92.4c0,11.5,0,18.7,0.2,22.8h-14.8c-0.3-2.5-0.5-4.9-0.6-7.4c-2.8,6.8-8.2,8.6-14.6,8.6
	c-7.3,0-15.5-3.5-15.5-20.3v-59h15.5v55c0,7.2,2.1,10.4,6.7,10.4c5.1,0,7.5-3.2,7.5-13.3v-52h15.5V92.4z"/>
<path class="st0" d="M908.6,63.6c0-13,0.1-18.5-0.2-26.5h14.7c0.2,1.5,0.4,8.5,0.4,12.6c3.1-10.5,10-13.8,17.2-13.8v19.2
	c-8.9,0-16.7,2.3-16.7,18.3v41.8h-15.5V63.6z"/>
<path class="st0" d="M993.5,92.4c0,11.5,0,18.7,0.2,22.8h-14.8c-0.3-2.5-0.5-4.9-0.6-7.4c-2.8,6.8-8.2,8.6-14.6,8.6
	c-7.3,0-15.5-3.5-15.5-20.3v-59h15.5v55c0,7.2,2.1,10.4,6.7,10.4c5.1,0,7.5-3.2,7.5-13.3v-52h15.5V92.4z"/>
<circle class="st1" cx="778.8" cy="116.2" r="9.2"/>
<path class="st0" d="M351.1,170v-10l-7.4-13.4h3.4l3.3,6.4c0.9,1.8,1.6,3.2,2.3,4.8h0.1c0.7-1.5,1.5-3.1,2.4-4.8l3.4-6.4h3.5
	l-7.9,13.4v10H351.1z"/>
<path class="st0" d="M378.9,161.4c0,6.2-4.3,8.9-8.4,8.9c-4.5,0-8-3.3-8-8.6c0-5.6,3.7-8.9,8.3-8.9
	C375.6,152.8,378.9,156.3,378.9,161.4z M365.5,161.6c0,3.7,2.1,6.4,5.1,6.4s5.1-2.7,5.1-6.5c0-2.8-1.4-6.4-5-6.4
	S365.5,158.4,365.5,161.6L365.5,161.6z"/>
<path class="st0" d="M398.5,165.4c0,1.7,0,3.3,0.1,4.6h-2.7l-0.2-2.7h-0.1c-1.2,2-3.3,3.2-5.5,3.1c-2.6,0-5.8-1.5-5.8-7.4v-9.8h3.1
	v9.3c0,3.2,1,5.3,3.7,5.3c1.8,0,3.4-1.1,4-2.8c0.2-0.5,0.3-1,0.3-1.6v-10.3h3L398.5,165.4z"/>
<path class="st0" d="M405.3,158.4c0-2,0-3.7-0.1-5.2h2.7l0.1,3.3h0.1c0.6-2.1,2.5-3.6,4.6-3.7c0.3,0,0.6,0,0.9,0.1v2.9
	c-0.3-0.1-0.7-0.1-1-0.1c-2.1,0-3.7,1.6-4.1,3.9c-0.1,0.5-0.1,0.9-0.1,1.4v9h-3L405.3,158.4z"/>
<path class="st0" d="M444,169.2c-2,0.8-4.1,1.2-6.2,1.1c-6.6,0-11.5-4.2-11.5-11.8c0-7.3,5-12.3,12.2-12.3c1.9-0.1,3.8,0.2,5.5,1
	l-0.7,2.5c-1.5-0.7-3.1-1-4.7-1c-5.5,0-9.1,3.5-9.1,9.6c0,5.7,3.3,9.4,9,9.4c1.7,0,3.4-0.3,4.9-1L444,169.2z"/>
<path class="st0" d="M449.3,158.4c0-2,0-3.7-0.1-5.2h2.7l0.1,3.3h0.1c0.6-2.1,2.5-3.6,4.6-3.7c0.3,0,0.6,0,0.9,0.1v2.9
	c-0.3-0.1-0.7-0.1-1-0.1c-2.1,0-3.7,1.6-4.1,3.9c-0.1,0.5-0.1,0.9-0.1,1.4v9h-3L449.3,158.4z"/>
<path class="st0" d="M464.4,153.2l3.7,9.9c0.4,1.1,0.8,2.4,1.1,3.4h0.1c0.3-1,0.7-2.3,1.1-3.5l3.3-9.8h3.2l-4.6,12
	c-2.2,5.8-3.7,8.7-5.8,10.5c-1.1,1-2.3,1.7-3.7,2l-0.8-2.6c1-0.3,1.9-0.8,2.7-1.5c1.1-0.9,2-2.1,2.6-3.4c0.1-0.2,0.2-0.5,0.2-0.7
	c0-0.3-0.1-0.5-0.2-0.8l-6.2-15.5L464.4,153.2z"/>
<path class="st0" d="M481.4,158.6c0-2.1-0.1-3.9-0.1-5.5h2.8l0.1,2.9h0.1c1.2-2.1,3.6-3.4,6-3.2c4.1,0,7.1,3.4,7.1,8.5
	c0,6-3.7,9-7.6,9c-2.1,0.1-4-0.9-5.2-2.6h-0.1v9.1h-3L481.4,158.6z M484.4,163.1c0,0.4,0.1,0.8,0.1,1.2c0.5,2.1,2.4,3.6,4.6,3.6
	c3.2,0,5.1-2.6,5.1-6.5c0-3.4-1.8-6.2-5-6.2c-2.2,0.1-4.1,1.6-4.6,3.8c-0.1,0.4-0.2,0.8-0.2,1.2L484.4,163.1z"/>
<path class="st0" d="M506.5,148.4v4.8h4.4v2.3h-4.4v9.1c0,2.1,0.6,3.3,2.3,3.3c0.6,0,1.2-0.1,1.8-0.2l0.1,2.3
	c-0.9,0.3-1.8,0.4-2.7,0.4c-1.2,0.1-2.4-0.4-3.3-1.3c-0.9-0.9-1.2-2.4-1.2-4.4v-9.2H501v-2.3h2.6v-4L506.5,148.4z"/>
<path class="st0" d="M531.1,161.4c0,6.2-4.3,8.9-8.3,8.9c-4.5,0-8-3.3-8-8.6c0-5.6,3.7-8.9,8.3-8.9
	C527.8,152.8,531.1,156.3,531.1,161.4z M517.8,161.6c0,3.7,2.1,6.4,5.1,6.4s5.1-2.7,5.1-6.5c0-2.8-1.4-6.4-5-6.4
	S517.8,158.4,517.8,161.6L517.8,161.6z"/>
<path class="st0" d="M562.2,169.2c-2,0.8-4.1,1.2-6.2,1.1c-6.6,0-11.5-4.2-11.5-11.8c0-7.3,5-12.3,12.2-12.3c1.9-0.1,3.8,0.2,5.5,1
	l-0.7,2.5c-1.5-0.7-3.1-1-4.7-1c-5.5,0-9.1,3.5-9.1,9.6c0,5.7,3.3,9.4,9,9.4c1.7,0,3.4-0.3,4.9-1L562.2,169.2z"/>
<path class="st0" d="M581.3,165.4c0,1.7,0,3.3,0.1,4.6h-2.7l-0.2-2.7h-0.1c-1.2,2-3.3,3.2-5.5,3.1c-2.6,0-5.8-1.5-5.8-7.4v-9.8h3
	v9.3c0,3.2,1,5.3,3.8,5.3c1.8,0,3.3-1.1,4-2.8c0.2-0.5,0.3-1,0.3-1.6v-10.3h3L581.3,165.4z"/>
<path class="st0" d="M588.1,158.4c0-2,0-3.7-0.1-5.2h2.7l0.1,3.3h0.1c0.6-2.1,2.5-3.6,4.6-3.7c0.3,0,0.6,0,0.9,0.1v2.9
	c-0.3-0.1-0.7-0.1-1-0.1c-2.2,0-3.7,1.6-4.1,3.9c-0.1,0.5-0.1,0.9-0.1,1.4v9h-3L588.1,158.4z"/>
<path class="st0" d="M601.4,158.4c0-2,0-3.7-0.1-5.2h2.7l0.1,3.3h0.1c0.6-2.1,2.5-3.6,4.6-3.7c0.3,0,0.6,0,0.9,0.1v2.9
	c-0.3-0.1-0.7-0.1-1-0.1c-2.2,0-3.7,1.6-4.1,3.9c-0.1,0.5-0.1,0.9-0.1,1.4v9h-3L601.4,158.4z"/>
<path class="st0" d="M615.8,162.1c0.1,4.1,2.7,5.8,5.8,5.8c1.6,0,3.2-0.2,4.7-0.9l0.5,2.2c-1.8,0.7-3.7,1.1-5.6,1
	c-5.2,0-8.2-3.4-8.2-8.5s3-9,7.9-9c5.5,0,6.9,4.8,6.9,7.9c0,0.5,0,0.9-0.1,1.4L615.8,162.1z M624.8,159.9c0-1.9-0.8-5-4.2-5
	c-3.1,0-4.4,2.8-4.7,5H624.8z"/>
<path class="st0" d="M633.3,157.7c0-1.7,0-3.2-0.1-4.5h2.7l0.2,2.8h0.1c1.1-2,3.3-3.2,5.5-3.1c2.3,0,5.9,1.4,5.9,7.1v10h-3v-9.7
	c0-2.7-1-4.9-3.9-4.9c-2.4,0.1-4.3,2.1-4.3,4.5V170h-3V157.7z"/>
<path class="st0" d="M666.2,169.3c-1.5,0.7-3.2,1-4.8,1c-5.1,0-8.4-3.4-8.4-8.6s3.5-8.9,9-8.9c1.5,0,2.9,0.3,4.2,0.9l-0.7,2.4
	c-1.1-0.6-2.3-0.8-3.5-0.8c-3.8,0-5.9,2.8-5.9,6.3c0,3.9,2.5,6.3,5.8,6.3c1.3,0,2.6-0.3,3.8-0.8L666.2,169.3z"/>
<path class="st0" d="M673.3,153.2l3.7,9.9c0.4,1.1,0.8,2.4,1.1,3.4h0.1c0.3-1,0.7-2.3,1.1-3.5l3.3-9.8h3.2l-4.6,12
	c-2.2,5.8-3.7,8.7-5.8,10.5c-1.1,1-2.3,1.7-3.7,2l-0.8-2.6c1-0.3,1.9-0.8,2.7-1.5c1.1-0.9,2-2.1,2.6-3.4c0.1-0.2,0.2-0.5,0.2-0.7
	c0-0.3-0.1-0.5-0.2-0.8l-6.2-15.5H673.3z"/>
<path class="st0" d="M717.3,168.9c-2.3,0.8-4.7,1.3-7.2,1.3c-3.5,0-6.5-0.9-8.7-3.1c-2.2-2.3-3.4-5.5-3.3-8.7
	c0-7,4.8-12.1,12.7-12.1c2,0,4,0.3,5.8,1.1l-0.7,2.5c-1.6-0.7-3.4-1-5.2-1c-5.7,0-9.4,3.5-9.4,9.4s3.6,9.4,9,9.4
	c1.4,0.1,2.7-0.1,4-0.6v-7h-4.7v-2.4h7.7V168.9z"/>
<path class="st0" d="M737.6,165.4c0,1.7,0,3.3,0.1,4.6H735l-0.2-2.7h-0.1c-1.2,2-3.3,3.2-5.5,3.1c-2.6,0-5.8-1.5-5.8-7.4v-9.8h3v9.3
	c0,3.2,1,5.3,3.8,5.3c1.8,0,3.3-1.1,4-2.8c0.2-0.5,0.3-1,0.3-1.6v-10.3h3L737.6,165.4z"/>
<path class="st0" d="M747.8,148.5c0,1-0.8,1.9-1.9,1.9s-1.9-0.8-1.9-1.9c0-1,0.8-1.9,1.8-1.9c0,0,0.1,0,0.1,0c1,0,1.8,0.7,1.9,1.7
	C747.8,148.4,747.8,148.4,747.8,148.5z M744.4,170v-16.8h3V170L744.4,170z"/>
<path class="st0" d="M768.8,145.3v20.3c0,1.5,0,3.2,0.1,4.3h-2.7l-0.1-2.9H766c-1.1,2.1-3.3,3.4-5.7,3.3c-4,0-7.2-3.4-7.2-8.5
	c0-5.6,3.4-9,7.5-9c2-0.1,4,0.9,5.1,2.6h0.1v-10L768.8,145.3z M765.8,160c0-0.4,0-0.9-0.1-1.3c-0.4-2.1-2.3-3.5-4.4-3.5
	c-3.2,0-5,2.8-5,6.5c0,3.4,1.7,6.2,5,6.2c2.2,0,4-1.5,4.5-3.6c0.1-0.4,0.2-0.9,0.1-1.3L765.8,160z"/>
<path class="st0" d="M777.3,162.1c0.1,4.1,2.7,5.8,5.8,5.8c1.6,0,3.2-0.2,4.7-0.9l0.5,2.2c-1.8,0.7-3.7,1.1-5.6,1
	c-5.2,0-8.3-3.4-8.3-8.5s3-9,7.9-9c5.5,0,6.9,4.8,6.9,7.9c0,0.5,0,0.9-0.1,1.4L777.3,162.1z M786.3,159.9c0-1.9-0.8-5-4.2-5
	c-3.1,0-4.4,2.8-4.7,5H786.3z"/>
</svg>
