<svg xmlns="http://www.w3.org/2000/svg" viewBox="0 0 993.65 178.62"><defs><style>.cls-1{fill:#6ca900;}</style></defs><title>logo-original</title><g id="Слой_2" data-name="Слой 2"><g id="Слой_1-2" data-name="Слой 1"><polygon points="28.5 150.12 28.5 114.5 0 114.5 0 178.62 64.13 178.62 64.13 150.12 28.5 150.12"/><polygon points="28.5 36.12 64.13 36.12 64.13 7.62 0 7.62 0 71.75 28.5 71.75 28.5 36.12"/><polygon points="142.5 150.12 106.88 150.12 106.88 178.62 171 178.62 171 114.5 142.5 114.5 142.5 150.12"/><g id="reply"><path class="cls-1" d="M114.2,92.61l18.33,18.32,10-74.81L68.4,46.81,87.18,65.59c-22.9,22.9-46.26,31.6-73.74,27C40.92,110.93,77.56,120.09,114.2,92.61Z"/></g><path d="M206.07,9.65V115.24h-8.15V9.65Z"/><path d="M315.27,87c-5,16.74-17.34,29.41-39.67,29.41-30.31,0-46.3-24.13-46.3-53.84,0-28.51,15.68-54.45,46.45-54.45,22.78,0,36.2,12.67,39.67,30.31h-8.14c-4.83-13.72-13.73-22.77-32-22.77-26.24,0-37.26,24-37.26,46.76,0,22.62,10.87,46.45,37.86,46.45,17.2,0,26-8.9,31.23-21.87Z"/><path d="M426.88,61.69c0,28.81-15.38,55.05-48,55.05-29.71,0-47.06-24-47.06-54.29,0-29.87,16.74-54.3,48.12-54.3C408.94,8.15,426.88,30.92,426.88,61.69Zm-86.27.3c0,24.29,13.42,47.21,38.76,47.21,27.3,0,38.77-22.32,38.77-47.36,0-24.58-13-46.15-38.47-46.15C352.52,15.69,340.61,38.16,340.61,62Z"/><path class="cls-1" d="M469.27,115.24V79.34H455.09v35.9H440.31V17.5a16.61,16.61,0,0,1,5.28-12.07A17,17,0,0,1,458,0h8a16.06,16.06,0,0,1,12.22,5.58A17.05,17.05,0,0,1,483.6,18v97.29ZM469,10.11H454.79V69.23H469Z"/><path class="cls-1" d="M541.82,110a16.61,16.61,0,0,1-12.07,5.28h-8a16.4,16.4,0,0,1-12.37-5.43,17.79,17.79,0,0,1-5.28-12.52V53.4q0-6.65,5.43-11.92,5.58-5.43,12.22-5.43h11.31V0h14V97.89A16.61,16.61,0,0,1,541.82,110Zm-8.75-63.65H518.59v59h14.48Z"/><path class="cls-1" d="M589,115.24,567.46,86.88V36.05h14.48V83.71L589,93.22l7.39-9.51V36.05h14V86.73Z"/><path class="cls-1" d="M631.11,115.24V36.05a15.13,15.13,0,0,1,10.18,3.69,11.92,11.92,0,0,1,4.3,9.43v66.07Z"/><path class="cls-1" d="M703.66,110.11a16.79,16.79,0,0,1-12.22,5.28H683a15.44,15.44,0,0,1-11.91-5.58,18.7,18.7,0,0,1-5-12.82V53.7a16.61,16.61,0,0,1,5.28-12.07,16.61,16.61,0,0,1,12.07-5.28h8.29a15.89,15.89,0,0,1,12.07,5.58q5.28,5.73,5.28,12.37v8.45H694.76V46.31H680.58v59h14.18V87.18h14.33V97.89A16.24,16.24,0,0,1,703.66,110.11Z"/><path class="cls-1" d="M741.82,79.34V105H756.3V92.31h14v5.58A17.52,17.52,0,0,1,753,115.24h-8.45a16.06,16.06,0,0,1-12.22-5.58,18.93,18.93,0,0,1-5-13V53.4q0-6.65,5.43-11.92,5.58-5.43,12.21-5.43h8q6.78,0,12.22,5.58T770.63,54V79.34Zm14.48-33H741.82V69.23H756.3Z"/><path d="M837.94,115.24H825.83a58.7,58.7,0,0,1-.85-7.57c-2.8,6.7-8.64,9-15.15,9-14.83,0-19.6-10.73-19.6-27.81V41.58c0-16.46,6.41-28.57,23.92-28.57,21.16,0,23.39,15.55,23.39,26.37v3.27H822v-4c0-5.31-.77-11.45-7.87-11.45-5.66,0-8.08,3.91-8.08,12V90.67c0,8.06,2.34,12.28,8,12.28,6.74,0,8.38-5.64,8.38-16V72.25h-8.81V58.88h24.37Z"/><path d="M895.6,92.44c0,11.48,0,18.7.15,22.8H880.91a57.73,57.73,0,0,1-.56-7.41c-2.76,6.83-8.18,8.61-14.57,8.61-7.27,0-15.52-3.48-15.52-20.31v-59H865.8V92.1c0,7.18,2.06,10.43,6.73,10.43,5.07,0,7.53-3.18,7.53-13.34v-52H895.6Z"/><path d="M908.6,63.62c0-13,.13-18.48-.16-26.46h14.73c.15,1.51.43,8.45.43,12.64,3.1-10.55,10-13.77,17.21-13.81V55.15c-8.91,0-16.67,2.28-16.67,18.27v41.82H908.6Z"/><path d="M993.5,92.44c0,11.48,0,18.7.15,22.8H978.81a57.73,57.73,0,0,1-.56-7.41c-2.76,6.83-8.18,8.61-14.57,8.61-7.27,0-15.52-3.48-15.52-20.31v-59H963.7V92.1c0,7.18,2.07,10.43,6.73,10.43,5.07,0,7.54-3.18,7.54-13.34v-52H993.5Z"/><circle class="cls-1" cx="778.75" cy="116.23" r="9.24"/><path d="M351.09,170V160l-7.38-13.45h3.43l3.29,6.45c.9,1.77,1.6,3.19,2.32,4.82h.07c.66-1.53,1.46-3.05,2.36-4.82l3.36-6.45H362L354.14,160v10Z"/><path d="M378.86,161.43c0,6.2-4.3,8.91-8.36,8.91-4.54,0-8-3.33-8-8.64,0-5.61,3.67-8.9,8.32-8.9C375.6,152.8,378.86,156.3,378.86,161.43Zm-13.32.17c0,3.68,2.12,6.45,5.1,6.45s5.1-2.74,5.1-6.52c0-2.84-1.43-6.45-5-6.45S365.54,158.41,365.54,161.6Z"/><path d="M398.51,165.38c0,1.73,0,3.26.14,4.58h-2.71l-.17-2.74h-.07a6.32,6.32,0,0,1-5.55,3.12c-2.63,0-5.79-1.46-5.79-7.35v-9.81h3.06v9.29c0,3.19,1,5.34,3.74,5.34a4.39,4.39,0,0,0,4-2.78,4.51,4.51,0,0,0,.28-1.56V153.18h3.05Z"/><path d="M405.34,158.41c0-2,0-3.67-.14-5.23h2.67l.1,3.29h.14a5,5,0,0,1,4.64-3.67,3.3,3.3,0,0,1,.87.1v2.88a4.48,4.48,0,0,0-1-.11c-2.15,0-3.67,1.63-4.09,3.92a8.53,8.53,0,0,0-.14,1.42v9h-3Z"/><path d="M444,169.19a14.91,14.91,0,0,1-6.18,1.11c-6.58,0-11.54-4.16-11.54-11.82,0-7.31,5-12.27,12.2-12.27a12.46,12.46,0,0,1,5.55,1l-.73,2.46a10.88,10.88,0,0,0-4.71-1c-5.48,0-9.12,3.5-9.12,9.64,0,5.72,3.29,9.39,9,9.39a12,12,0,0,0,4.92-1Z"/><path d="M449.32,158.41c0-2,0-3.67-.14-5.23h2.67l.11,3.29h.13a5,5,0,0,1,4.65-3.67,3.3,3.3,0,0,1,.87.1v2.88a4.61,4.61,0,0,0-1-.11c-2.15,0-3.68,1.63-4.09,3.92a8.53,8.53,0,0,0-.14,1.42v9h-3Z"/><path d="M464.4,153.18l3.67,9.91c.39,1.11.8,2.43,1.08,3.43h.07c.31-1,.66-2.29,1.07-3.5l3.33-9.84h3.22l-4.57,12c-2.19,5.75-3.68,8.7-5.76,10.5a8.27,8.27,0,0,1-3.74,2l-.76-2.57a8.18,8.18,0,0,0,2.67-1.49,9.25,9.25,0,0,0,2.56-3.4,2.12,2.12,0,0,0,.24-.72,2.5,2.5,0,0,0-.2-.8l-6.21-15.46Z"/><path d="M481.38,158.65c0-2.15-.07-3.88-.14-5.47H484l.14,2.87h.07a6.61,6.61,0,0,1,6-3.25c4.06,0,7.11,3.43,7.11,8.52,0,6-3.67,9-7.63,9a5.87,5.87,0,0,1-5.16-2.64h-.07v9.12h-3Zm3,4.48a6.71,6.71,0,0,0,.14,1.24,4.69,4.69,0,0,0,4.57,3.57c3.23,0,5.1-2.63,5.1-6.48,0-3.36-1.77-6.24-5-6.24a4.87,4.87,0,0,0-4.61,3.78,4.67,4.67,0,0,0-.21,1.25Z"/><path d="M506.55,148.36v4.82h4.37v2.32h-4.37v9.05c0,2.08.59,3.26,2.29,3.26a6.91,6.91,0,0,0,1.76-.21l.14,2.29a7.52,7.52,0,0,1-2.7.41,4.22,4.22,0,0,1-3.29-1.28c-.87-.9-1.18-2.39-1.18-4.37V155.5H501v-2.32h2.6v-4Z"/><path d="M531.09,161.43c0,6.2-4.3,8.91-8.35,8.91-4.55,0-8-3.33-8-8.64,0-5.61,3.68-8.9,8.32-8.9C527.83,152.8,531.09,156.3,531.09,161.43Zm-13.31.17c0,3.68,2.11,6.45,5.09,6.45s5.1-2.74,5.1-6.52c0-2.84-1.42-6.45-5-6.45S517.78,158.41,517.78,161.6Z"/><path d="M562.25,169.19a14.89,14.89,0,0,1-6.17,1.11c-6.59,0-11.54-4.16-11.54-11.82,0-7.31,5-12.27,12.2-12.27a12.5,12.5,0,0,1,5.55,1l-.73,2.46a10.92,10.92,0,0,0-4.72-1c-5.47,0-9.11,3.5-9.11,9.64,0,5.72,3.29,9.39,9,9.39a12.1,12.1,0,0,0,4.92-1Z"/><path d="M581.32,165.38c0,1.73,0,3.26.13,4.58h-2.7l-.17-2.74h-.07a6.33,6.33,0,0,1-5.55,3.12c-2.63,0-5.79-1.46-5.79-7.35v-9.81h3.05v9.29c0,3.19,1,5.34,3.75,5.34a4.41,4.41,0,0,0,4-2.78,4.51,4.51,0,0,0,.28-1.56V153.18h3.05Z"/><path d="M588.14,158.41c0-2,0-3.67-.14-5.23h2.67l.11,3.29h.14a5,5,0,0,1,4.64-3.67,3.3,3.3,0,0,1,.87.1v2.88a4.55,4.55,0,0,0-1-.11c-2.15,0-3.68,1.63-4.09,3.92a8.53,8.53,0,0,0-.14,1.42v9h-3Z"/><path d="M601.38,158.41c0-2,0-3.67-.14-5.23h2.67l.11,3.29h.14a5,5,0,0,1,4.64-3.67,3.3,3.3,0,0,1,.87.1v2.88a4.55,4.55,0,0,0-1-.11c-2.15,0-3.68,1.63-4.09,3.92a8.53,8.53,0,0,0-.14,1.42v9h-3Z"/><path d="M615.84,162.12c.07,4.13,2.7,5.82,5.75,5.82a11.16,11.16,0,0,0,4.65-.86l.52,2.18a13.52,13.52,0,0,1-5.58,1c-5.17,0-8.25-3.4-8.25-8.46s3-9,7.87-9c5.47,0,6.93,4.81,6.93,7.9a10.33,10.33,0,0,1-.11,1.42Zm8.94-2.18c0-1.95-.8-5-4.23-5-3.08,0-4.44,2.84-4.68,5Z"/><path d="M633.27,157.72c0-1.74,0-3.16-.14-4.54h2.71L636,156h.07a6.15,6.15,0,0,1,5.55-3.15c2.32,0,5.93,1.38,5.93,7.14v10H644.5v-9.68c0-2.7-1-4.95-3.88-4.95a4.48,4.48,0,0,0-4.3,4.54V170h-3.05Z"/><path d="M666.24,169.33a11.21,11.21,0,0,1-4.82,1c-5.06,0-8.36-3.43-8.36-8.56s3.54-8.91,9-8.91a10.13,10.13,0,0,1,4.23.87l-.7,2.35a7.11,7.11,0,0,0-3.53-.79c-3.85,0-5.93,2.84-5.93,6.34,0,3.88,2.5,6.28,5.82,6.28a8.69,8.69,0,0,0,3.75-.84Z"/><path d="M673.31,153.18l3.67,9.91c.38,1.11.8,2.43,1.08,3.43h.07c.31-1,.65-2.29,1.07-3.5l3.33-9.84h3.22l-4.57,12c-2.19,5.75-3.68,8.7-5.76,10.5a8.27,8.27,0,0,1-3.74,2l-.77-2.57a8,8,0,0,0,2.67-1.49,9.16,9.16,0,0,0,2.57-3.4,2.12,2.12,0,0,0,.24-.72,2.6,2.6,0,0,0-.21-.8L670,153.18Z"/><path d="M717.3,168.92a22,22,0,0,1-7.18,1.28c-3.54,0-6.45-.9-8.74-3.09a12,12,0,0,1-3.26-8.7c0-7,4.82-12.06,12.66-12.06a14.53,14.53,0,0,1,5.82,1.07l-.73,2.46a12.13,12.13,0,0,0-5.16-1c-5.69,0-9.4,3.53-9.4,9.39s3.57,9.43,9,9.43a10,10,0,0,0,4-.62v-7H709.6v-2.43h7.7Z"/><path d="M737.61,165.38c0,1.73,0,3.26.13,4.58H735l-.17-2.74h-.07a6.33,6.33,0,0,1-5.55,3.12c-2.63,0-5.79-1.46-5.79-7.35v-9.81h3v9.29c0,3.19,1,5.34,3.75,5.34a4.41,4.41,0,0,0,4-2.78,4.51,4.51,0,0,0,.28-1.56V153.18h3.05Z"/><path d="M747.83,148.46a1.89,1.89,0,0,1-3.78,0,1.86,1.86,0,0,1,1.91-1.9A1.81,1.81,0,0,1,747.83,148.46Zm-3.4,21.5V153.18h3.05V170Z"/><path d="M768.8,145.34v20.28c0,1.49,0,3.19.14,4.34H766.2l-.14-2.92H766a6.19,6.19,0,0,1-5.72,3.3c-4,0-7.17-3.44-7.17-8.53,0-5.58,3.43-9,7.52-9a5.6,5.6,0,0,1,5.06,2.56h.07v-10Zm-3,14.67a5.1,5.1,0,0,0-.14-1.29,4.48,4.48,0,0,0-4.4-3.53c-3.15,0-5,2.77-5,6.48,0,3.4,1.67,6.21,5,6.21a4.58,4.58,0,0,0,4.47-3.65,5,5,0,0,0,.14-1.31Z"/><path d="M777.33,162.12c.07,4.13,2.7,5.82,5.75,5.82a11.16,11.16,0,0,0,4.65-.86l.52,2.18a13.52,13.52,0,0,1-5.58,1c-5.17,0-8.26-3.4-8.26-8.46s3-9,7.87-9c5.48,0,6.94,4.81,6.94,7.9a10.33,10.33,0,0,1-.11,1.42Zm8.94-2.18c0-1.95-.8-5-4.23-5-3.08,0-4.44,2.84-4.68,5Z"/></g></g></svg>