<?xml version="1.0" encoding="utf-8"?>
<!-- Generator: Adobe Illustrator 22.1.0, SVG Export Plug-In . SVG Version: 6.00 Build 0)  -->
<svg version="1.1" id="Слой_1" xmlns="http://www.w3.org/2000/svg" xmlns:xlink="http://www.w3.org/1999/xlink" x="0px" y="0px"
	 viewBox="0 0 600 600" style="enable-background:new 0 0 600 600;" xml:space="preserve">
<style type="text/css">
	.st0{fill:#FFFFFF;}
	.st1{fill:#6CA900;}
</style>
<title>logo-cube</title>
<polygon class="st0" points="100,500 100,375 0,375 0,600 225,600 225,500 "/>
<polygon class="st0" points="100,100 225,100 225,0 0,0 0,225 100,225 "/>
<polygon class="st0" points="500,500 375,500 375,600 600,600 600,375 500,375 "/>
<g id="reply">
	<path class="st1" d="M400.7,298.2l64.3,64.3L500,100l-260,37.5l65.9,65.9c-80.4,80.4-162.3,110.9-258.8,94.8
		C143.6,362.5,272.1,394.6,400.7,298.2z"/>
</g>
</svg>
