<svg xmlns="http://www.w3.org/2000/svg" viewBox="0 0 64 64"><defs><style>.cls-1{fill:#999;}.cls-2{fill:#fff;}</style></defs><title>no-photo-64x64</title><g id="Слой_2" data-name="Слой 2"><g id="Слой_1-2" data-name="Слой 1"><rect class="cls-1" width="64" height="64"/><path class="cls-2" d="M31.39,26.73a9.87,9.87,0,1,0-9.87-9.86A9.88,9.88,0,0,0,31.39,26.73Z"/><path class="cls-2" d="M44.63,31.51h0c-1.28-.31-5.22-.86-5.22-.86a.87.87,0,0,0-1.08.53L32.39,47.43a1.07,1.07,0,0,1-2,0L24.46,31.18a.87.87,0,0,0-.82-.57c-.08,0-4.13.56-5.47.9-3.68.91-6,4.53-6,8.3V53.33A3.67,3.67,0,0,0,15.83,57H46.94a3.67,3.67,0,0,0,3.67-3.67V39.77a8.69,8.69,0,0,0-6-8.26Z"/><path class="cls-2" d="M33.62,30.34a1.24,1.24,0,0,0-.93-.39H30.08a1.25,1.25,0,0,0-.93.39A1.21,1.21,0,0,0,29,31.76l1.4,2.1-.66,5.5L31,42.78a.39.39,0,0,0,.74,0L33,39.36l-.65-5.5,1.39-2.1A1.19,1.19,0,0,0,33.62,30.34Z"/></g></g></svg>