<svg xmlns="http://www.w3.org/2000/svg" viewBox="0 0 128 64"><defs><style>.cls-1{fill:#999;}.cls-2{fill:#fff;}</style></defs><title>upload-128x64</title><g id="Слой_2" data-name="Слой 2"><g id="Слой_1-2" data-name="Слой 1"><rect class="cls-1" width="128" height="64"/><path class="cls-2" d="M81,20.06A15.68,15.68,0,0,0,57,9.5a15.79,15.79,0,0,0-5.09,5.35,8.93,8.93,0,0,0-1.64-.15,8.59,8.59,0,0,0-8.58,8.57,9.42,9.42,0,0,0,.18,1.78A12,12,0,0,0,37,34.68a12.76,12.76,0,0,0,3.24,8.44,11.54,11.54,0,0,0,8,4h9.65a1.5,1.5,0,1,0,0-3H48.33c-4.55-.28-8.37-4.6-8.37-9.48A8.92,8.92,0,0,1,44.37,27,1.52,1.52,0,0,0,45,25.16a5.48,5.48,0,0,1-.33-1.91A5.58,5.58,0,0,1,52.17,18a1.5,1.5,0,0,0,1.88-.77,12.67,12.67,0,0,1,24.06,4.18,1.51,1.51,0,0,0,1.25,1.33,10.83,10.83,0,0,1-1,21.38h-8.2a1.5,1.5,0,0,0,0,3H78.5a13.3,13.3,0,0,0,8.92-4.4A13.84,13.84,0,0,0,81,20.06Z"/><path class="cls-2" d="M73,36.1A1.5,1.5,0,0,0,73,34l-8-7.95a1.51,1.51,0,0,0-1-.44A1.47,1.47,0,0,0,63,26l-8,8a1.5,1.5,0,0,0,0,2.13,1.48,1.48,0,0,0,2.11,0l5.39-5.4V55.5a1.51,1.51,0,0,0,3,0V30.7l5.39,5.4A1.49,1.49,0,0,0,73,36.1Z"/></g></g></svg>